<svg width="192" height="214" viewBox="0 0 192 214" fill="none" xmlns="http://www.w3.org/2000/svg">
<path d="M92.8862 181.74C73.219 181.74 58.1592 177.336 47.7067 168.526C37.3917 159.58 32.2343 146.435 32.2343 129.092V84.9084C32.2343 67.5654 37.3917 54.4894 47.7067 45.6802C58.1592 36.7334 73.219 32.26 92.8862 32.26C107.052 32.26 118.605 34.5311 127.544 39.0734C136.622 43.6156 143.773 50.3601 149 59.3069L126.926 74.3787C122.662 67.4966 118.123 62.5415 113.31 59.5133C108.496 56.4852 101.688 54.9711 92.8862 54.9711C81.8836 54.9711 73.8379 57.5175 68.7492 62.6103C63.798 67.5654 61.3224 74.9981 61.3224 84.9084V129.092C61.3224 139.002 63.798 146.504 68.7492 151.596C73.8379 156.552 81.8836 159.029 92.8862 159.029C102.514 159.029 109.803 157.446 114.754 154.28C119.843 150.977 122.387 146.228 122.387 140.034V133.634C122.387 125.1 118.467 120.833 110.628 120.833H87.1098V98.1221H118.88C129.883 98.1221 137.997 100.669 143.223 105.761C148.449 110.854 151.063 118.769 151.063 129.505V142.099C151.063 154.487 145.836 164.191 135.384 171.21C124.931 178.23 110.765 181.74 92.8862 181.74Z" fill="white"/>
<path d="M92.886 0C110.092 0 127.065 2.70079 141.958 10.2215L141.96 10.2199C141.976 10.2279 141.991 10.2371 142.007 10.2451C142.05 10.2667 142.093 10.2864 142.136 10.3081L142.134 10.3097C156.844 17.7118 168.545 28.8468 176.827 43.0249L192 68.9999L168.204 85.2449C180.042 98.4219 183.296 115.123 183.296 129.505V142.099C183.296 165.455 172.536 185.109 153.346 197.998C135.782 209.793 114.584 214 92.886 214C68.8915 214 45.2969 208.67 26.9442 193.203L26.768 193.055L26.5948 192.905C7.3969 176.253 7.59022e-05 153.078 0 129.092V84.9079C0.000116414 60.9471 7.39094 37.7014 26.7821 21.1407L26.7837 21.1423C45.1405 5.44431 68.7993 3.98258e-05 92.886 0L92.8862 32.26C73.219 32.26 58.1592 36.7334 47.7067 45.6802C37.3917 54.4894 32.2343 67.5654 32.2343 84.9084V129.092L32.25 130.705C32.5622 147.252 37.714 159.859 47.7067 168.526C58.1592 177.336 73.219 181.74 92.8862 181.74C110.765 181.74 124.931 178.23 135.384 171.21C145.836 164.191 151.063 154.487 151.063 142.099V129.505C151.063 118.769 148.449 110.854 143.223 105.761C137.997 100.669 129.883 98.1221 118.88 98.1221H87.1098V120.833H110.628C118.467 120.833 122.387 125.1 122.387 133.634V140.034C122.387 146.228 119.843 150.977 114.754 154.28C109.803 157.446 102.514 159.029 92.8862 159.029C81.8836 159.029 73.8379 156.552 68.7492 151.596C63.798 146.504 61.3224 139.002 61.3224 129.092V84.9084C61.3224 74.9981 63.798 67.5654 68.7492 62.6103C73.8379 57.5175 81.8836 54.9711 92.8862 54.9711L94.5134 54.9886C102.532 55.166 108.797 56.6744 113.31 59.5133C118.123 62.5415 122.662 67.4966 126.926 74.3787L149 59.3069C143.773 50.3601 136.622 43.6156 127.544 39.0734C118.605 34.5311 107.052 32.26 92.8862 32.26L92.886 0Z" fill="url(#paint0_linear_40_16)"/>
<defs>
<linearGradient id="paint0_linear_40_16" x1="32.1698" y1="32.4794" x2="151.553" y2="182.396" gradientUnits="userSpaceOnUse">
<stop stop-color="#FF0000"/>
<stop offset="1" stop-color="#00B6A1"/>
</linearGradient>
</defs>
</svg>
